# This file uses centimeters as units for non-parametric coordinates.

v 0.000000 0.000000 -2.000000
v -2.000000 0.000000 0.000000
v 0.000000 2.000000 0.000000
v 0.000000 0.000000 2.000000
v 2.000000 0.000000 0.000000
v 0.000000 -2.000000 0.000000
v 0.000000 -0.000000 -0.000000
vt 0.000000 0.000000
vt 0.250000 0.000000
vt 0.500000 1.000000
vt 0.500000 0.000000
vt 0.750000 0.000000
vt 1.000000 0.000000
vt 0.500000 -1.000000
vt 1.000000 -0.500000
vt 0.500000 -0.500000
vt 0.500000 0.000000
vt 0.000000 -0.500000
vt 0.000000 0.000000
vt 1.000000 0.000000
vt 0.500000 1.000000
vn -0.577350 0.577350 -0.577350
vn -0.577350 0.577350 -0.577350
vn -0.577350 0.577350 -0.577350
vn -0.577350 0.577350 0.577350
vn -0.577350 0.577350 0.577350
vn -0.577350 0.577350 0.577350
vn 0.577350 0.577350 -0.577350
vn 0.577350 0.577350 -0.577350
vn 0.577350 0.577350 -0.577350
vn 0.577350 -0.577350 -0.577350
vn 0.577350 -0.577350 -0.577350
vn 0.577350 -0.577350 -0.577350
vn 0.577350 -0.577350 0.577350
vn 0.577350 -0.577350 0.577350
vn 0.577350 -0.577350 0.577350
vn -0.577350 -0.577350 0.577350
vn -0.577350 -0.577350 0.577350
vn -0.577350 -0.577350 0.577350
vn -0.577350 -0.577350 -0.577350
vn -0.577350 -0.577350 -0.577350
vn -0.577350 -0.577350 -0.577350
vn -0.000000 1.000000 -0.000000
vn -0.000000 1.000000 -0.000000
vn -0.000000 1.000000 -0.000000
f 1/1/1 2/2/2 3/3/3
f 2/2/4 4/4/5 3/3/6
f 5/5/7 1/6/8 3/3/9
f 1/7/10 5/8/11 6/9/12
f 5/8/13 4/10/14 6/9/15
f 4/10/16 2/11/17 6/9/18
f 2/11/19 1/7/20 6/9/21
f 4/12/22 5/13/23 7/14/24
