# This file uses centimeters as units for non-parametric coordinates.

v 0.250000 0.000000 -0.433013
v -0.250000 0.000000 -0.433013
v -0.500000 0.000000 -0.000000
v -0.250000 0.000000 0.433013
v 0.250000 0.000000 0.433013
v 0.500000 0.000000 0.000000
v 0.500000 0.500000 -0.866025
v -0.500000 0.500000 -0.866026
v -1.000000 0.500000 -0.000000
v -0.500000 0.500000 0.866025
v 0.500000 0.500000 0.866025
v 1.000000 0.500000 0.000000
v 0.750000 -0.000000 -1.299038
v -0.750000 -0.000000 -1.299038
v -1.500000 -0.000000 -0.000000
v -0.750000 -0.000000 1.299038
v 0.750000 -0.000000 1.299038
v 1.500000 -0.000000 0.000000
v 0.500000 -0.500000 -0.866025
v -0.500000 -0.500000 -0.866026
v -1.000000 -0.500000 -0.000000
v -0.500000 -0.500000 0.866025
v 0.500000 -0.500000 0.866025
v 1.000000 -0.500000 0.000000
v 0.499865 -0.000000 -0.865792
v -0.499865 -0.000000 -0.865792
v -0.999730 -0.000000 -0.000000
v -0.499865 -0.000000 0.865792
v 0.499865 -0.000000 0.865792
v 0.999730 -0.000000 0.000000
vt 0.000000 1.000000
vt 0.166667 1.000000
vt 0.333333 1.000000
vt 0.500000 1.000000
vt 0.666667 1.000000
vt 0.833333 1.000000
vt 1.000000 1.000000
vt 0.000000 0.750000
vt 0.166667 0.750000
vt 0.333333 0.750000
vt 0.500000 0.750000
vt 0.666667 0.750000
vt 0.833333 0.750000
vt 1.000000 0.750000
vt 0.000000 0.500000
vt 0.166667 0.500000
vt 0.333333 0.500000
vt 0.500000 0.500000
vt 0.666667 0.500000
vt 0.833333 0.500000
vt 1.000000 0.500000
vt 0.000000 0.250000
vt 0.166667 0.250000
vt 0.333333 0.250000
vt 0.500000 0.250000
vt 0.666667 0.250000
vt 0.833333 0.250000
vt 1.000000 0.250000
vt 0.000000 0.000000
vt 0.166667 0.000000
vt 0.333333 0.000000
vt 0.500000 0.000000
vt 0.666667 0.000000
vt 0.833333 0.000000
vt 1.000000 0.000000
vt 0.000000 0.000000
vt 1.000000 0.000000
vt 1.000000 1.000000
vt 0.000000 1.000000
vt 0.000000 0.000000
vt 1.000000 0.000000
vt 1.000000 1.000000
vt 0.000000 1.000000
vt 0.000000 0.000000
vt 1.000000 0.000000
vt 1.000000 1.000000
vt 0.000000 1.000000
vt 0.000000 0.000000
vt 1.000000 0.000000
vt 1.000000 1.000000
vt 0.000000 1.000000
vt 0.000000 0.000000
vt 1.000000 0.000000
vt 1.000000 1.000000
vt 0.000000 1.000000
vt 0.000000 0.000000
vt 1.000000 0.000000
vt 1.000000 1.000000
vt 0.000000 1.000000
vn -0.000000 0.654654 0.755929
vn -0.000000 0.654654 0.755929
vn -0.000000 0.654654 0.755929
vn -0.000000 0.654654 0.755929
vn 0.654654 0.654654 0.377965
vn 0.654654 0.654654 0.377965
vn 0.654654 0.654654 0.377965
vn 0.654654 0.654654 0.377965
vn 0.654654 0.654654 -0.377964
vn 0.654654 0.654654 -0.377964
vn 0.654654 0.654654 -0.377964
vn 0.654654 0.654654 -0.377964
vn 0.000000 0.654654 -0.755929
vn 0.000000 0.654654 -0.755929
vn 0.000000 0.654654 -0.755929
vn 0.000000 0.654654 -0.755929
vn -0.654654 0.654654 -0.377964
vn -0.654654 0.654654 -0.377964
vn -0.654654 0.654654 -0.377964
vn -0.654654 0.654654 -0.377964
vn -0.654654 0.654654 0.377964
vn -0.654654 0.654654 0.377964
vn -0.654654 0.654654 0.377964
vn -0.654654 0.654654 0.377964
vn 0.000000 -0.654654 -0.755929
vn 0.000000 -0.654654 -0.755929
vn 0.000000 -0.654654 -0.755929
vn 0.000000 -0.654654 -0.755929
vn -0.654653 -0.654654 -0.377964
vn -0.654653 -0.654654 -0.377964
vn -0.654653 -0.654654 -0.377964
vn -0.654653 -0.654654 -0.377964
vn -0.654654 -0.654654 0.377964
vn -0.654654 -0.654654 0.377964
vn -0.654654 -0.654654 0.377964
vn -0.654654 -0.654654 0.377964
vn -0.000000 -0.654654 0.755929
vn -0.000000 -0.654654 0.755929
vn -0.000000 -0.654654 0.755929
vn -0.000000 -0.654654 0.755929
vn 0.654654 -0.654654 0.377964
vn 0.654654 -0.654654 0.377964
vn 0.654654 -0.654654 0.377964
vn 0.654654 -0.654654 0.377964
vn 0.654654 -0.654654 -0.377964
vn 0.654654 -0.654654 -0.377964
vn 0.654654 -0.654654 -0.377964
vn 0.654654 -0.654654 -0.377964
vn -0.000000 -0.654654 0.755929
vn -0.000000 -0.654654 0.755929
vn -0.000000 -0.654654 0.755929
vn -0.000000 -0.654654 0.755929
vn 0.654654 -0.654654 0.377965
vn 0.654654 -0.654654 0.377965
vn 0.654654 -0.654654 0.377965
vn 0.654654 -0.654654 0.377965
vn 0.654654 -0.654654 -0.377964
vn 0.654654 -0.654654 -0.377964
vn 0.654654 -0.654654 -0.377964
vn 0.654654 -0.654654 -0.377964
vn 0.000000 -0.654654 -0.755929
vn 0.000000 -0.654654 -0.755929
vn 0.000000 -0.654654 -0.755929
vn 0.000000 -0.654654 -0.755929
vn -0.654654 -0.654654 -0.377965
vn -0.654654 -0.654654 -0.377965
vn -0.654654 -0.654654 -0.377965
vn -0.654654 -0.654654 -0.377965
vn -0.654654 -0.654654 0.377964
vn -0.654654 -0.654654 0.377964
vn -0.654654 -0.654654 0.377964
vn -0.654654 -0.654654 0.377964
vn 0.000000 -0.000467 -1.000000
vn 0.000000 -0.000467 -1.000000
vn 0.000000 -0.000467 -1.000000
vn 0.000000 -0.000467 -1.000000
vn -0.866025 -0.000467 -0.500000
vn -0.866025 -0.000467 -0.500000
vn -0.866025 -0.000467 -0.500000
vn -0.866025 -0.000467 -0.500000
vn -0.866025 -0.000467 0.500000
vn -0.866025 -0.000467 0.500000
vn -0.866025 -0.000467 0.500000
vn -0.866025 -0.000467 0.500000
vn -0.000000 -0.000467 1.000000
vn -0.000000 -0.000467 1.000000
vn -0.000000 -0.000467 1.000000
vn -0.000000 -0.000467 1.000000
vn 0.866025 -0.000467 0.500000
vn 0.866025 -0.000467 0.500000
vn 0.866025 -0.000467 0.500000
vn 0.866025 -0.000467 0.500000
vn 0.866025 -0.000467 -0.500000
vn 0.866025 -0.000467 -0.500000
vn 0.866025 -0.000467 -0.500000
vn 0.866025 -0.000467 -0.500000
f 2/2/1 1/1/2 7/8/3 8/9/4
f 3/3/5 2/2/6 8/9/7 9/10/8
f 4/4/9 3/3/10 9/10/11 10/11/12
f 5/5/13 4/4/14 10/11/15 11/12/16
f 6/6/17 5/5/18 11/12/19 12/13/20
f 1/7/21 6/6/22 12/13/23 7/14/24
f 14/16/25 13/15/26 19/22/27 20/23/28
f 15/17/29 14/16/30 20/23/31 21/24/32
f 16/18/33 15/17/34 21/24/35 22/25/36
f 17/19/37 16/18/38 22/25/39 23/26/40
f 18/20/41 17/19/42 23/26/43 24/27/44
f 13/21/45 18/20/46 24/27/47 19/28/48
f 20/23/49 19/22/50 1/29/51 2/30/52
f 21/24/53 20/23/54 2/30/55 3/31/56
f 22/25/57 21/24/58 3/31/59 4/32/60
f 23/26/61 22/25/62 4/32/63 5/33/64
f 24/27/65 23/26/66 5/33/67 6/34/68
f 19/28/69 24/27/70 6/34/71 1/35/72
f 8/36/73 7/37/74 25/38/75 26/39/76
f 9/40/77 8/41/78 26/42/79 27/43/80
f 10/44/81 9/45/82 27/46/83 28/47/84
f 11/48/85 10/49/86 28/50/87 29/51/88
f 12/52/89 11/53/90 29/54/91 30/55/92
f 7/56/93 12/57/94 30/58/95 25/59/96
