<?xml version="1.0" encoding="UTF-8" standalone="no"?>
<!DOCTYPE svg PUBLIC "-//W3C//DTD SVG 1.0//EN" "http://www.w3.org/TR/2001/REC-SVG-20010904/DTD/svg10.dtd">

<svg xmlns="http://www.w3.org/2000/svg" xmlns:xlink="http://www.w3.org/1999/xlink" width="17.43cm" height="29.03cm" viewBox="0 0 494000 823000">
<title></title>
<desc>Picture generated by wxSVG v0101</desc>

<g style="fill:black; stroke:black; stroke-width:1">
</g>
<g style="fill:#FFCC99; fill-opacity:1.00; stroke:#000000; stroke-opacity:0.0; stroke-linecap:round; stroke-linejoin:round; stroke-width:1" transform="translate(0.00 0.00) scale(1.00 1.00)">
  <polygon style="fill-rule:nonzero;" points="184199 331610 172926 334289 161682 337495 150477 341284 139324 345733 128239 350937 117252 357023 106420 364144 95840 372490 85684 382263 76216 393653 67811 406796 60944 421717 56134 438303 53895 456273 53895 456273 54658 475225 58735 494658 66293 514028 77363 532799 91855 550463 109576 566558 130253 580673 153515 592431 178918 601516 205921 607663 233921 610690 262247 610498 290226 607092 317206 600573 342559 591138 365759 579051 386356 564637 403977 548280 418354 530388 429296 511431 436716 491905 440643 472357 441246 453312 441246 453312 438835 435284 433843 418669 426781 403748 418180 390642 408517 379322 398171 369651 387421 361439 376434 354475 365312 348568 354110 343558 342853 339315 331562 335741 320247 332758 308911 330307 297566 328344 286215 326835 274861 325754 263507 325083 252157 324810 240808 324930 229469 325442 218133 326352 206807 327671 195495 329415 184199 331610 184199 331610 189229 412027 191713 413583 199660 416950 202668 417743 202668 417743 205501 415892 212991 412294 221500 409363 230670 407256 240225 406040 249938 405745 259596 406375 268984 407919 277842 410332 285849 413509 291497 416611 291497 416611 298156 414299 303814 411314 304659 410721 304659 410721 303814 411314 298156 414299 291497 416611 291497 416611 286711 418272 270332 421659 250974 423370 231105 422941 213254 420533 202668 417743 202668 417743 199660 416950 191713 413583 189229 412027 189229 412027 "/>
</g>
<g style="fill:#FFCC99; fill-opacity:1.00; stroke:#000000; stroke-opacity:1.00; stroke-linecap:round; stroke-linejoin:round; stroke-width:1" transform="translate(0.00 0.00) scale(1.00 1.00)">
  <path d="M184199 331610 L172926 334289 L161682 337495 L150477 341284 L139324 345733 L128239 350937 L117252 357023 L106420 364144 L95840 372490 L85684 382263 L76216 393653 L67811 406796 L60944 421717 L56134 438303 L53895 456273 L53895 456273 L54658 475225 L58735 494658 L66293 514028 L77363 532799 L91855 550463 L109576 566558 L130253 580673 L153515 592431 L178918 601516 L205921 607663 L233921 610690 L262247 610498 L290226 607092 L317206 600573 L342559 591138 L365759 579051 L386356 564637 L403977 548280 L418354 530388 L429296 511431 L436716 491905 L440643 472357 L441246 453312 L441246 453312 L438835 435284 L433843 418669 L426781 403748 L418180 390642 L408517 379322 L398171 369651 L387421 361439 L376434 354475 L365312 348568 L354110 343558 L342853 339315 L331562 335741 L320247 332758 L308911 330307 L297566 328344 L286215 326835 L274861 325754 L263507 325083 L252157 324810 L240808 324930 L229469 325442 L218133 326352 L206807 327671 L195495 329415 L184199 331610 L184199 331610" style="fill:none"/>
  <path d="M189229 412027 L191713 413583 L199660 416950 L202668 417743 L202668 417743 L205501 415892 L212991 412294 L221500 409363 L230670 407256 L240225 406040 L249938 405745 L259596 406375 L268984 407919 L277842 410332 L285849 413509 L291497 416611 L291497 416611 L298156 414299 L303814 411314 L304659 410721 L304659 410721 L303814 411314 L298156 414299 L291497 416611 L291497 416611 L286711 418272 L270332 421659 L250974 423370 L231105 422941 L213254 420533 L202668 417743 L202668 417743 L199660 416950 L191713 413583 L189229 412027 L189229 412027" style="fill:none"/>
</g>
<g style="fill:#C8C8C8; fill-opacity:1.00; stroke:#000000; stroke-opacity:1.00; stroke-linecap:round; stroke-linejoin:round; stroke-width:1" transform="translate(0.00 0.00) scale(1.00 1.00)">
  <polygon style="fill-rule:nonzero;" points="291497 416611 285849 413509 277842 410332 268984 407919 259596 406375 249938 405745 240225 406040 230670 407256 221500 409363 212991 412294 205501 415892 202668 417743 202668 417743 213254 420533 231105 422941 250974 423370 270332 421659 286711 418272 291497 416611 "/>
</g>
</svg>
