/* XPM */
static char *ParticleSystem_xpm[] = {
/* columns rows colors chars-per-pixel */
"16 16 66 1",
"s c #CACACA",
"9 c #37322D",
"C c #5D6466",
"  c #FFFFFF",
"F c #767879",
"t c #3C5021",
"- c #FBAF5D",
"0 c #6E4F2D",
". c #E9E9E9",
"p c #F8F8F8",
"y c #8DC63F",
"< c #747573",
"Z c #0B475F",
"w c #33291D",
"6 c #425B20",
"q c #8C6134",
"3 c #D99750",
"c c #525A5D",
"$ c #CD8F4C",
"v c #05506C",
"V c #05090A",
"7 c #4B6A22",
"= c #684C2C",
"A c #0087BB",
"l c #F2F2F2",
"j c #3A4448",
"1 c #A0A0A0",
"; c #E7A156",
"D c #475054",
"N c #00ADEF",
"G c #273236",
"5 c #22251E",
"e c #797877",
"u c #5C8129",
"k c #ECECEC",
": c #13100E",
"b c #009BD7",
"z c #7C7C7B",
", c #8B8B8B",
"& c #6D6A68",
"r c #9A9A9A",
"M c #008FC6",
"h c #0F1618",
"O c #706E6C",
"X c #524D49",
"@ c #0A0907",
"H c #6E7173",
"n c #015574",
"8 c #080906",
"> c #F5F5F5",
"# c #A9763F",
"* c #949494",
"B c #00A6E5",
"m c #1D262A",
"o c #2E2925",
"f c #4F6E23",
"2 c #5D442A",
"% c #62482B",
"x c #6D6F6B",
"4 c #221E1A",
"S c #074E69",
"i c #52554E",
"+ c #FEFEFE",
"d c #435D20",
"g c #4B5457",
"a c #8E8E8E",
/* pixels */
"                ",
"                ",
"  .XoO          ",
" +@#$%&         ",
" *=--;:    >,<. ",
" 12--34    5678.",
"  90qwe   rtyyui",
"  paOs    rtyyui",
"           5df8.",
"    >ghjk  lzx. ",
"    cvbnj       ",
"    mMNBV       ",
"    CZASD       ",
"     FGHp       ",
"                ",
"                "
};
