/* XPM */
static char *ParticleSystems_xpm[] = {
/* columns rows colors chars-per-pixel */
"16 16 96 2",
"j  c #CACACA",
"@  c #A6743E",
"^  c #080B04",
"m  c #37322D",
"{  c #030705",
"E  c #344819",
"H  c #1F2510",
"x  c #5D6466",
"h  c #080807",
"   c #FFFFFF",
"V  c #767879",
"B  c #253311",
"&  c #3C5021",
";  c #FBAF5D",
"M  c #6E4F2D",
">  c #E9E9E9",
"A  c #F8F8F8",
"f  c #00A8E8",
"*  c #8DC63F",
"I  c #747573",
"c  c #0B475F",
"|  c #5D4326",
"t  c #33291D",
"G  c #131718",
"X  c #425B20",
"r  c #8C6134",
" . c #181814",
"R  c #013346",
"4  c #D99750",
"U  c #525A5D",
"#  c #CD8F4C",
"z  c #16120E",
"Y  c #05506C",
"u  c #684C2C",
"o  c #4B6A22",
"v  c #0087BB",
"p  c #F2F2F2",
"N  c #281F0F",
"(  c #3A4448",
"q  c #030603",
"k  c #A0A0A0",
"[  c #222B10",
"J  c #709D32",
"s  c #101513",
":  c #E7A156",
"n  c #475054",
"!  c #00ADEF",
"=  c #354B18",
"C  c #273236",
".  c #22251E",
"o. c #797877",
"K  c #5C8129",
"}  c #009EDA",
"+  c #090807",
"i  c #13100E",
"T  c #009BD7",
"a  c #7C7C7B",
"P  c #8B8B8B",
"8  c #6D6A68",
"%  c #9A9A9A",
"Q  c #008FC6",
"1  c #706E6C",
",  c #524D49",
"e  c #684B29",
"6  c #0A0907",
"d  c #0083B5",
"Z  c #6E7173",
"'  c #015574",
"O  c #080906",
".. c #0A4157",
"S  c #F5F5F5",
"7  c #A9763F",
"y  c #949494",
"`  c #083842",
"2  c #3A511A",
"~  c #00A6E5",
"W  c #1D262A",
"<  c #2E2925",
"l  c #5D442A",
"0  c #4F6E23",
"$  c #62482B",
"g  c #005C80",
"]  c #130F09",
"_  c #6D6F6B",
"/  c #0C110A",
"X. c #221E1A",
"3  c #51391E",
"w  c #0F2124",
")  c #434C50",
"b  c #074E69",
"L  c #52554E",
"5  c #FEFEFE",
"F  c #0F1517",
"9  c #435D20",
"D  c #4B5457",
"-  c #634626",
/* pixels */
"                . X o O + @ # $ ",
"              % & * * = - ; ; : ",
"    > , < 1   % & * * 2 3 ; ; 4 ",
"  5 6 7 # $ 8   . 9 0 q w e r t ",
"  y u ; ; : i   p a s d f g h j ",
"  k l ; ; 4 z >     x c v b n   ",
"    m M r N B O >     V C Z A   ",
"S D F G H J * K L   S P I >     ",
"U Y T R E * * K L   . X o O >   ",
"W Q ! ~ ^ 9 0 O > % & * * K / ( ",
"x c v b ) a _ >   % & * * K ` ' ",
"  V C Z A       > , ] [ 0 { } ~ ",
"              5 6 7 # |  ...v b ",
"              y u ; ; : i V C Z ",
"              k l ; ; 4 X.      ",
"                m M r t o.      "
};
