/* XPM */
static char *Particles_xpm[] = {
/* columns rows colors chars-per-pixel */
"16 16 54 1",
"p c #CACACA",
"$ c #008741",
"X c #444D48",
"v c #5D6461",
"  c #FFFFFF",
"e c #767877",
"h c #7B7C7B",
"6 c #054D28",
". c #E9E9E9",
"u c #F8F8F8",
"t c #006C34",
"2 c #0C4226",
"4 c #161E19",
"< c #727573",
"j c #525A56",
"k c #009548",
"3 c #008F45",
"y c #4B534F",
"a c #044E28",
"x c #008942",
"O c #696E6C",
"d c #3A443E",
"g c #F2F2F2",
"1 c #A0A0A0",
"5 c #1A231F",
"n c #47504B",
"- c #00A650",
"9 c #27322C",
"f c #ECECEC",
", c #8B8B8B",
"r c #9A9A9A",
"8 c #050806",
"@ c #050807",
"q c #005C2D",
"m c #6E716F",
"7 c #00592B",
"b c #00823E",
"% c #0B4527",
"o c #1F2924",
"= c #094827",
"> c #F5F5F5",
": c #0B100D",
"0 c #074B28",
"* c #949494",
"& c #656A68",
"z c #1D2621",
"w c #0F271B",
"c c #009F4D",
"# c #007036",
"; c #00994A",
"l c #015128",
"+ c #FEFEFE",
"s c #0F1512",
"i c #8E8E8E",
/* pixels */
"                ",
"                ",
"  .XoO          ",
" +@#$%&         ",
" *=--;:    >,<. ",
" 12--34    5678.",
"  90qwe   r%--ty",
"  uiOp    r%--ty",
"           5aq8.",
"    >ysdf  ghO. ",
"    j6kld       ",
"    zx-c@       ",
"    v%b0n       ",
"     e9mu       ",
"                ",
"                "
};
